<svg xmlns="http://www.w3.org/2000/svg" xmlns:xlink="http://www.w3.org/1999/xlink" width="357" zoomAndPan="magnify" viewBox="0 0 267.75 267.749983" height="357" preserveAspectRatio="xMidYMid meet" version="1.0"><defs><clipPath id="ebeabe7834"><path d="M 0 0 L 267.5 0 L 267.5 267.5 L 0 267.5 Z M 0 0 " clip-rule="nonzero"/></clipPath><clipPath id="c2b3d77314"><path d="M 133.75 0 C 59.882812 0 0 59.882812 0 133.75 C 0 207.617188 59.882812 267.5 133.75 267.5 C 207.617188 267.5 267.5 207.617188 267.5 133.75 C 267.5 59.882812 207.617188 0 133.75 0 Z M 133.75 0 " clip-rule="nonzero"/></clipPath><clipPath id="1591b3e88f"><path d="M 0 0 L 267.5 0 L 267.5 267.5 L 0 267.5 Z M 0 0 " clip-rule="nonzero"/></clipPath><clipPath id="328010d438"><path d="M 133.75 0 C 59.882812 0 0 59.882812 0 133.75 C 0 207.617188 59.882812 267.5 133.75 267.5 C 207.617188 267.5 267.5 207.617188 267.5 133.75 C 267.5 59.882812 207.617188 0 133.75 0 Z M 133.75 0 " clip-rule="nonzero"/></clipPath><clipPath id="a23a53167d"><rect x="0" width="268" y="0" height="268"/></clipPath><clipPath id="37d97f89aa"><path d="M 92.539062 61.816406 L 109.023438 61.816406 L 109.023438 205.683594 L 92.539062 205.683594 Z M 92.539062 61.816406 " clip-rule="nonzero"/></clipPath><clipPath id="31aa72859a"><path d="M 0.539062 0.816406 L 17.023438 0.816406 L 17.023438 144.683594 L 0.539062 144.683594 Z M 0.539062 0.816406 " clip-rule="nonzero"/></clipPath><clipPath id="89967efa9d"><rect x="0" width="18" y="0" height="145"/></clipPath><clipPath id="b72c699968"><path d="M 125.507812 46.832031 L 141.992188 46.832031 L 141.992188 190.695312 L 125.507812 190.695312 Z M 125.507812 46.832031 " clip-rule="nonzero"/></clipPath><clipPath id="8ee979bd91"><path d="M 0.507812 0.832031 L 16.992188 0.832031 L 16.992188 144.695312 L 0.507812 144.695312 Z M 0.507812 0.832031 " clip-rule="nonzero"/></clipPath><clipPath id="cf6dd13b8f"><rect x="0" width="17" y="0" height="145"/></clipPath><clipPath id="320fcf4367"><path d="M 160.285156 61.816406 L 176.769531 61.816406 L 176.769531 205.683594 L 160.285156 205.683594 Z M 160.285156 61.816406 " clip-rule="nonzero"/></clipPath><clipPath id="bf4666ff3f"><path d="M 0.285156 0.816406 L 16.769531 0.816406 L 16.769531 144.683594 L 0.285156 144.683594 Z M 0.285156 0.816406 " clip-rule="nonzero"/></clipPath><clipPath id="064c69bc47"><rect x="0" width="17" y="0" height="145"/></clipPath></defs><g clip-path="url(#ebeabe7834)"><g clip-path="url(#c2b3d77314)"><g transform="matrix(1, 0, 0, 1, -0, 0.000000000000017334)"><g clip-path="url(#a23a53167d)"><g clip-path="url(#1591b3e88f)"><g clip-path="url(#328010d438)"><path fill="#000000" d="M 0 0 L 267.5 0 L 267.5 267.5 L 0 267.5 Z M 0 0 " fill-opacity="1" fill-rule="nonzero"/></g></g></g></g></g></g><g clip-path="url(#37d97f89aa)"><g transform="matrix(1, 0, 0, 1, 92, 61)"><g clip-path="url(#89967efa9d)"><g clip-path="url(#31aa72859a)"><path fill="#ffffff" d="M 0.539062 0.816406 L 17.023438 0.816406 L 17.023438 144.671875 L 0.539062 144.671875 Z M 0.539062 0.816406 " fill-opacity="1" fill-rule="nonzero"/></g></g></g></g><g clip-path="url(#b72c699968)"><g transform="matrix(1, 0, 0, 1, 125, 46)"><g clip-path="url(#cf6dd13b8f)"><g clip-path="url(#8ee979bd91)"><path fill="#ffffff" d="M 0.507812 0.832031 L 16.992188 0.832031 L 16.992188 144.683594 L 0.507812 144.683594 Z M 0.507812 0.832031 " fill-opacity="1" fill-rule="nonzero"/></g></g></g></g><g clip-path="url(#320fcf4367)"><g transform="matrix(1, 0, 0, 1, 160, 61)"><g clip-path="url(#064c69bc47)"><g clip-path="url(#bf4666ff3f)"><path fill="#ffffff" d="M 0.285156 0.816406 L 16.769531 0.816406 L 16.769531 144.671875 L 0.285156 144.671875 Z M 0.285156 0.816406 " fill-opacity="1" fill-rule="nonzero"/></g></g></g></g></svg>