<?xml version="1.0" encoding="UTF-8" standalone="no"?>
<!-- Created with Inkscape (http://www.inkscape.org/) -->

<svg
   version="1.1"
   id="svg1"
   width="1165.1014"
   height="1165.1067"
   viewBox="0 0 1165.1014 1165.1067"
   xmlns="http://www.w3.org/2000/svg"
   xmlns:svg="http://www.w3.org/2000/svg">
  <defs
     id="defs1" />
  <g
     id="g1"
     transform="translate(1557.6852,-2239.9583)">
    <g
       id="g455">
      <path
         id="path3"
         d="M -392.5837,3405.0649 H -1557.685 V 2239.9582 h 1165.1013 v 1165.1067"
         style="fill:#62cace;fill-opacity:1;fill-rule:nonzero;stroke:none;stroke-width:0.133333" />
      <g
         id="g454"
         transform="translate(-42.6533,6.88665)">
        <path
           id="path17"
           d="m -614.32636,3124.0515 c 0,35.0134 -28.38533,63.3734 -63.37333,63.3734 v 0 c -35.00133,0 -63.36666,-28.36 -63.36666,-63.3734 v -221.7866 c 0,-35.0267 28.36533,-63.3734 63.36666,-63.3734 v 0 c 34.988,0 63.37333,28.3467 63.37333,63.3734 v 221.7866"
           style="fill:#feffff;fill-opacity:1;fill-rule:nonzero;stroke:none;stroke-width:0.133333" />
        <path
           id="path18"
           d="m -1250.625,2902.2649 c 0,-35.0267 28.3653,-63.3734 63.3613,-63.3734 v 0 c 34.9854,0 63.3734,28.3467 63.3734,63.3734 v 221.7866 c 0,35.0134 -28.388,63.3734 -63.3734,63.3734 v 0 c -34.996,0 -63.3613,-28.36 -63.3613,-63.3734 v -221.7866"
           style="fill:#feffff;fill-opacity:1;fill-rule:nonzero;stroke:none;stroke-width:0.133333" />
        <path
           id="path19"
           d="m -544.4784,2966.7715 -22.98796,-4.2 c 0.39334,-2.2133 38.86666,-222.88 -75.15733,-359.4799 -60.40133,-72.36 -153.25066,-109.0534 -275.97599,-109.0534 -123.56802,0 -219.09332,37.2134 -283.91862,110.5867 -121.144,137.0933 -95.5307,356.4266 -95.2547,358.6133 l -23.1893,2.88 c -1.1827,-9.4133 -27.1267,-232.0667 100.9133,-376.9733 69.4693,-78.6267 170.8733,-118.4667 301.44932,-118.4667 130.03999,0 228.95066,39.5334 294.01199,117.5334 121.01069,145.1199 81.83999,369.0933 80.10929,378.5599"
           style="fill:#ef3950;fill-opacity:1;fill-rule:nonzero;stroke:none;stroke-width:0.133333" />
        <path
           id="path20"
           d="m -1260.1197,2693.3716 c -3.7466,0 -7.54,-0.6134 -11.2733,-1.8934 -18.216,-6.24 -28.0467,-25.8666 -21.9547,-44.12 2.7694,-8.32 71.3387,-203.5333 374.76268,-203.5333 307.10133,0 346.23466,186.0267 347.748,193.9333 3.636,19.0134 -8.824,37.4 -27.84,41.0534 -19.14267,3.5333 -37.39734,-8.8667 -41.028,-27.8534 -1.15067,-5.1733 -32.776,-137.0133 -278.88,-137.0133 -250.62128,0 -306.07468,149.5067 -308.32268,155.8533 -5.08,14.44 -18.6826,23.5734 -33.212,23.5734"
           style="fill:#1d3c45;fill-opacity:1;fill-rule:nonzero;stroke:none;stroke-width:0.133333" />
        <path
           id="path21"
           d="m -603.99036,2915.4515 v 195.4 c 39.38267,0 71.28796,-43.7333 71.28796,-97.7066 0,-53.92 -31.90529,-97.6934 -71.28796,-97.6934"
           style="fill:#1d3c45;fill-opacity:1;fill-rule:nonzero;stroke:none;stroke-width:0.133333" />
        <path
           id="path22"
           d="m -1260.9717,3110.8515 v -195.4 c -39.3786,0 -71.288,43.7334 -71.288,97.6934 0,53.9333 31.9094,97.7066 71.288,97.7066"
           style="fill:#1d3c45;fill-opacity:1;fill-rule:nonzero;stroke:none;stroke-width:0.133333" />
      </g>
    </g>
  </g>
</svg>
