<?xml version="1.0" encoding="UTF-8" standalone="no"?>
<!-- Created with Inkscape (http://www.inkscape.org/) -->

<svg
   version="1.1"
   id="svg1"
   width="1165.0906"
   height="1165.0933"
   viewBox="0 0 1165.0906 1165.0933"
   xmlns="http://www.w3.org/2000/svg"
   xmlns:svg="http://www.w3.org/2000/svg">
  <defs
     id="defs1" />
  <g
     id="g1"
     transform="translate(1786.9261,-565.52428)">
    <path
       id="path5"
       d="M -1786.9262,565.5243 H -621.8356 V 1730.6176 H -1786.9262 V 565.5243"
       style="fill:#1d3c45;fill-opacity:1;fill-rule:nonzero;stroke:none;stroke-width:0.133333" />
    <path
       id="path97"
       d="m -893.63289,952.2443 h -637.28401 c -125.1161,0 -220.2306,123.2 -220.2306,248.2666 0,125.08 98.836,248.3334 223.9666,248.3334 h 54.6787 520.45331 54.69333 c 125.12136,0 223.96936,-123.2534 223.96936,-248.3334 0,-125.0666 -95.1214,-248.2666 -220.24669,-248.2666"
       style="fill:#afaba9;fill-opacity:1;fill-rule:nonzero;stroke:none;stroke-width:0.133333" />
    <path
       id="path98"
       d="m -895.66756,931.8176 h -637.28794 c -125.1166,0 -220.242,123.2 -220.242,248.2667 0,125.08 98.8473,248.3333 223.9686,248.3333 h 54.6907 520.45065 54.68266 c 125.12799,0 223.97069,-123.2533 223.97069,-248.3333 0,-125.0667 -95.112,-248.2667 -220.23336,-248.2667"
       style="fill:#cbc9c5;fill-opacity:1;fill-rule:nonzero;stroke:none;stroke-width:0.133333" />
    <path
       id="path99"
       d="m -1611.8275,1254.4309 h -50.7206 v -148.6266 h 50.7206 v 148.6266"
       style="fill:#565759;fill-opacity:1;fill-rule:nonzero;stroke:none;stroke-width:0.133333" />
    <path
       id="path100"
       d="m -1711.5325,1205.4843 v -50.72 h 148.6583 v 50.72 h -148.6583"
       style="fill:#565759;fill-opacity:1;fill-rule:nonzero;stroke:none;stroke-width:0.133333" />
    <path
       id="path101"
       d="m -1522.1222,961.231 v 437.7733 h 3.708 L -912.26489,961.231 h -609.85731"
       style="fill:#4eb2bc;fill-opacity:1;fill-rule:nonzero;stroke:none;stroke-width:0.133333" />
    <path
       id="path102"
       d="m -1518.4142,1399.0043 h 611.88398 V 961.231 h -5.73467 l -606.14931,437.7733"
       style="fill:#a3dadc;fill-opacity:1;fill-rule:nonzero;stroke:none;stroke-width:0.133333" />
    <path
       id="path103"
       d="m -906.53022,961.231 h -615.59198 v 437.7733 h 615.59198 z m -9.84534,9.8533 v 418.0666 H -1512.2795 V 971.0843 h 595.90394"
       style="fill:#8c8b8b;fill-opacity:1;fill-rule:nonzero;stroke:none;stroke-width:0.133333" />
    <path
       id="path104"
       d="m -767.3356,1127.1376 c 0,15.8267 -12.82,28.6667 -28.63996,28.6667 -15.80266,0 -28.624,-12.84 -28.624,-28.6667 0,-15.8133 12.82134,-28.6267 28.624,-28.6267 15.81996,0 28.63996,12.8134 28.63996,28.6267"
       style="fill:#bb2a35;fill-opacity:1;fill-rule:nonzero;stroke:none;stroke-width:0.133333" />
    <path
       id="path105"
       d="m -767.3356,1233.0976 c 0,15.8133 -12.82,28.6267 -28.63996,28.6267 -15.80266,0 -28.624,-12.8134 -28.624,-28.6267 0,-15.8133 12.82134,-28.6533 28.624,-28.6533 15.81996,0 28.63996,12.84 28.63996,28.6533"
       style="fill:#bb2a35;fill-opacity:1;fill-rule:nonzero;stroke:none;stroke-width:0.133333" />
    <path
       id="path106"
       d="m -742.9889,1208.7509 c -15.8187,0 -28.6387,-12.8133 -28.6387,-28.64 0,-15.8 12.82,-28.6266 28.6387,-28.6266 15.8147,0 28.632,12.8266 28.632,28.6266 0,15.8267 -12.8173,28.64 -28.632,28.64"
       style="fill:#bb2a35;fill-opacity:1;fill-rule:nonzero;stroke:none;stroke-width:0.133333" />
    <path
       id="path107"
       d="m -848.94622,1208.7509 c -15.80667,0 -28.632,-12.8133 -28.632,-28.64 0,-15.8 12.82533,-28.6266 28.632,-28.6266 15.816,0 28.664,12.8266 28.664,28.6266 0,15.8267 -12.848,28.64 -28.664,28.64"
       style="fill:#bb2a35;fill-opacity:1;fill-rule:nonzero;stroke:none;stroke-width:0.133333" />
  </g>
</svg>
