<?xml version="1.0" encoding="UTF-8" standalone="no"?>
<!-- Created with Inkscape (http://www.inkscape.org/) -->

<svg
   version="1.1"
   id="svg1"
   width="1165.1014"
   height="1165.1069"
   viewBox="0 0 1165.1014 1165.1069"
   xmlns="http://www.w3.org/2000/svg"
   xmlns:svg="http://www.w3.org/2000/svg">
  <defs
     id="defs1" />
  <g
     id="g1"
     transform="translate(2706.754,-4372.3326)">
    <g
       id="g452"
       transform="translate(-2706.7538,386.67912)">
      <path
         id="path8"
         d="M 0,5150.7601 H 1165.1013 V 3985.6534 H 0 Z"
         style="fill:#f8a70e;fill-opacity:1;fill-rule:nonzero;stroke:none;stroke-width:0.133333" />
      <path
         id="path108"
         d="m 600.50932,4204.7201 c 4.09466,15.08 -4.824,30.6533 -19.932,34.7467 l -62.216,16.84 c -15.108,4.08 -30.66267,-4.84 -34.75733,-19.9467 l -5.308,-19.6667 c -4.096,-15.0933 4.824,-30.6666 19.936,-34.7466 l 62.20666,-16.84 c 15.112,-4.08 30.68534,4.84 34.76134,19.96 l 5.30933,19.6533"
         style="fill:#ffffff;fill-opacity:1;fill-rule:nonzero;stroke:none;stroke-width:0.133333" />
      <path
         id="path109"
         d="m 595.61465,4757.6134 h -75.08666 v -133.76 h 75.08666 v 133.76"
         style="fill:#bdbbb9;fill-opacity:1;fill-rule:nonzero;stroke:none;stroke-width:0.133333" />
      <path
         id="path110"
         d="M 661.50665,4755.3601 H 454.61466 c -40.70934,0 -73.72934,33 -73.72934,73.72 h 354.35066 c 0,-40.72 -33.016,-73.72 -73.72933,-73.72"
         style="fill:#3a474c;fill-opacity:1;fill-rule:nonzero;stroke:none;stroke-width:0.133333" />
      <path
         id="path111"
         d="m 388.52132,5033.3467 c 0,16.4667 -13.33866,29.8 -29.79333,29.8 h -83.54666 c -16.46667,0 -29.8,-13.3333 -29.8,-29.8 v 0 c 0,-16.4533 13.33333,-29.7866 29.8,-29.7866 h 83.54666 c 16.45467,0 29.79333,13.3333 29.79333,29.7866 v 0"
         style="fill:#bdbbb9;fill-opacity:1;fill-rule:nonzero;stroke:none;stroke-width:0.133333" />
      <path
         id="path112"
         d="m 857.85465,5033.3467 c 0,16.4667 -13.33334,29.8 -29.79334,29.8 h -83.548 c -16.45733,0 -29.78933,-13.3333 -29.78933,-29.8 v 0 c 0,-16.4533 13.332,-29.7866 29.78933,-29.7866 h 83.548 c 16.46,0 29.79334,13.3333 29.79334,29.7866 v 0"
         style="fill:#bdbbb9;fill-opacity:1;fill-rule:nonzero;stroke:none;stroke-width:0.133333" />
      <path
         id="path113"
         d="m 902.44131,4921.1601 c 0,-42.7334 -39.02133,-77.3734 -87.18133,-77.3734 H 304.37599 c -48.14533,0 -87.17333,34.64 -87.17333,77.3734 v 99.92 h 685.23865 v -99.92"
         style="fill:#3a474c;fill-opacity:1;fill-rule:nonzero;stroke:none;stroke-width:0.133333" />
      <path
         id="path114"
         d="m 452.67999,4253.8268 c 0,0 -10.22667,35.8 46.03733,71.6133 56.26267,35.8 -28.644,159.6 -28.644,159.6 0,0 -81.85066,145.28 27.61067,168.8 l 152.43733,-11.2534 c 0,0 39.89066,-37.8533 -16.376,-99.24 0,0 26.592,2.04 22.51066,-44 -4.084,-46.0266 -38.86133,-31.7066 -39.88933,-70.5733 -1.03467,-38.88 63.42667,-39.9066 56.264,-72.64 -7.15867,-32.7333 -39.90533,-27.6133 -50.132,-63.4133 -10.232,-35.8133 77.752,-29.68 54.22267,-107.4267 -23.532,-77.7333 -115.60667,31.7067 -115.60667,31.7067 0,0 -92.05866,2.04 -108.43466,36.8267"
         style="fill:#3a474c;fill-opacity:1;fill-rule:nonzero;stroke:none;stroke-width:0.133333" />
    </g>
  </g>
</svg>
