<?xml version="1.0" encoding="UTF-8" standalone="no"?>
<!-- Created with Inkscape (http://www.inkscape.org/) -->

<svg
   version="1.1"
   id="svg1"
   width="1165.0933"
   height="1165.0933"
   viewBox="0 0 1165.0933 1165.0933"
   xmlns="http://www.w3.org/2000/svg"
   xmlns:svg="http://www.w3.org/2000/svg">
  <defs
     id="defs1" />
  <g
     id="g1"
     transform="translate(3980.6849,-115.99802)">
    <g
       id="g448"
       transform="translate(-7937.565,115.99782)">
      <path
         id="path210"
         d="M 5121.9732,1165.0935 H 3956.8799 V 1.95316e-4 H 5121.9732 V 1165.0935"
         style="fill:#f8a70e;fill-opacity:1;fill-rule:nonzero;stroke:none;stroke-width:0.133333" />
      <path
         id="path285"
         d="m 4717.2932,638.50685 h -284.08 V 204.82686 h 284.08 v 433.67999"
         style="fill:#3aa8a0;fill-opacity:1;fill-rule:nonzero;stroke:none;stroke-width:0.133333" />
      <path
         id="path286"
         d="m 4492.3599,266.21352 v 155.45333 c 0,22.88 18.5467,41.45333 41.4533,41.45333 1.3734,0 2.7067,-0.0933 4.0267,-0.21333 V 224.97352 c -1.32,-0.13333 -2.6533,-0.2 -4.0267,-0.2 -22.9066,0 -41.4533,18.54667 -41.4533,41.44"
         style="fill:#42beac;fill-opacity:1;fill-rule:nonzero;stroke:none;stroke-width:0.133333" />
      <path
         id="path287"
         d="m 4814.4532,407.81352 h -82.32 c 0.24,3.56 0.4,7.16 0.4,10.78666 0,97.66667 -86.9733,176.93333 -194.6933,178.05333 v 467.45329 c 6.7067,-0.067 13.2933,-0.2266 19.68,-0.5333 220.08,-10.8533 247.1333,-166.10666 250.4533,-201.91999 6.9067,-31.69334 6.48,-54.22667 6.48,-54.22667 V 407.81352"
         style="fill:#ffffff;fill-opacity:1;fill-rule:nonzero;stroke:none;stroke-width:0.133333" />
      <path
         id="path288"
         d="m 4535.5332,596.70685 c -108.8,0 -197,-79.73333 -197,-178.10667 0,-3.62666 0.1467,-7.22666 0.3867,-10.78666 h -82.32 v 446.49332 c 0,0 2.44,195.39996 248.4667,209.07996 8.8933,0.4934 18.1066,0.7734 27.68,0.7734 1.72,0 3.3866,-0.04 5.0933,-0.053 V 596.65351 c -0.7733,0.0133 -1.5333,0.0533 -2.3067,0.0533"
         style="fill:#e8e9e7;fill-opacity:1;fill-rule:nonzero;stroke:none;stroke-width:0.133333" />
      <path
         id="path289"
         d="m 4814.4532,322.96019 c 0,0 -2.44,-195.4 -248.4533,-209.06666 -8.92,-0.49334 -18.12,-0.78667 -27.6933,-0.78667 -0.16,0 -0.32,0.0133 -0.4667,0.0133 v 111.85333 c 12.5467,1.2 23.3733,8.08 30.12,17.96 4.5467,6.65334 7.3067,14.61334 7.3067,23.28 v 141.6 13.85333 c 0,21.52 -16.44,39.21333 -37.4267,41.24 v 133.74666 c 107.72,-1.12 194.6933,-80.38666 194.6933,-178.05333 0,-3.62666 -0.16,-7.22666 -0.4,-10.78666 h 82.32 v -84.85333"
         style="fill:#ececea;fill-opacity:1;fill-rule:nonzero;stroke:none;stroke-width:0.133333" />
      <path
         id="path290"
         d="m 4492.3599,266.21352 c 0,-8.36 2.4933,-16.12 6.7467,-22.62666 7.4,-11.33334 20.1733,-18.81334 34.7066,-18.81334 1.3734,0 2.7067,0.0667 4.0267,0.2 V 113.12019 c -8.36,0 -16.4667,0.2 -24.3067,0.58667 -220.08,10.85333 -247.1466,166.10666 -250.4533,201.90666 -6.92,31.69333 -6.48,54.24 -6.48,54.24 v 37.96 h 82.32 c -0.24,3.56 -0.3867,7.16 -0.3867,10.78666 0,98.37334 88.2,178.10667 197,178.10667 0.7734,0 1.5334,-0.04 2.3067,-0.0533 v -133.7467 c -1.32,0.12 -2.6533,0.21333 -4.0267,0.21333 -22.9066,0 -41.4533,-18.57333 -41.4533,-41.45333 v -13.85333 -141.6"
         style="fill:#d8d8d5;fill-opacity:1;fill-rule:nonzero;stroke:none;stroke-width:0.133333" />
    </g>
  </g>
</svg>
