<?xml version="1.0" encoding="UTF-8" standalone="no"?>
<!-- Created with Inkscape (http://www.inkscape.org/) -->

<svg
   version="1.1"
   id="svg1"
   width="1165.1064"
   height="1165.1067"
   viewBox="0 0 1165.1064 1165.1067"
   xmlns="http://www.w3.org/2000/svg"
   xmlns:svg="http://www.w3.org/2000/svg">
  <defs
     id="defs1" />
  <g
     id="g1"
     transform="translate(4126.0978,-1881.1216)">
    <g
       id="g450"
       transform="translate(-6744.4445,-2104.5318)">
      <path
         id="path10"
         d="M 3783.4532,5150.7601 H 2618.3466 V 3985.6534 h 1165.1066 v 1165.1067"
         style="fill:#f15336;fill-opacity:1;fill-rule:nonzero;stroke:none;stroke-width:0.133333" />
      <path
         id="path161"
         d="m 2783.6533,4594.6667 10.7333,15.4134 3.4933,-2.4267 v -22.8933 l -14.2266,9.9066"
         style="fill:#f1eeee;fill-opacity:1;fill-rule:nonzero;stroke:none;stroke-width:0.133333" />
      <path
         id="path162"
         d="m 3610.1332,4465.0801 -10.8933,-15.3067 -3.6,2.56 v 23.04 l 14.4933,-10.2933"
         style="fill:#f1eeee;fill-opacity:1;fill-rule:nonzero;stroke:none;stroke-width:0.133333" />
      <path
         id="path163"
         d="m 2705.5466,4822.0001 c 0,0.12 -0.013,0.2666 -0.013,0.3733 0,33.4667 17.1333,60.56 38.2533,60.56 h 905.96 c 21.12,0 38.2266,-27.0933 38.2266,-60.56 0,-0.1067 0,-0.2533 0,-0.3733 h -982.4266"
         style="fill:#cbc9c5;fill-opacity:1;fill-rule:nonzero;stroke:none;stroke-width:0.133333" />
      <path
         id="path164"
         d="m 3340.2799,4852.4801 c 0,7.84 -6.36,14.2 -14.2266,14.2 h -258.6134 c -7.84,0 -14.2,-6.36 -14.2,-14.2 v 0 c 0,-7.8534 6.36,-14.2267 14.2,-14.2267 h 258.6134 c 7.8666,0 14.2266,6.3733 14.2266,14.2267 v 0"
         style="fill:#8c8b8b;fill-opacity:1;fill-rule:nonzero;stroke:none;stroke-width:0.133333" />
      <path
         id="path165"
         d="m 3595.6399,4772.6134 h -797.76 v -468.2666 h 797.76 z m -8.1467,-505.7466 h -781.4799 c -28.1467,0 -50.96,25.2266 -50.96,56.36 v 430.4933 c 0,31.1333 22.8133,56.3733 50.96,56.3733 h 781.4799 c 28.1467,0 50.9734,-25.24 50.9734,-56.3733 v -430.4933 c 0,-31.1334 -22.8267,-56.36 -50.9734,-56.36"
         style="fill:#ffffff;fill-opacity:1;fill-rule:nonzero;stroke:none;stroke-width:0.133333" />
      <path
         id="path166"
         d="m 3207.6933,4282.2001 c 0,6.04 -4.88,10.9467 -10.9467,10.9467 -6.0267,0 -10.9333,-4.9067 -10.9333,-10.9467 0,-6.0267 4.9066,-10.92 10.9333,-10.92 6.0667,0 10.9467,4.8933 10.9467,10.92"
         style="fill:#8c8b8b;fill-opacity:1;fill-rule:nonzero;stroke:none;stroke-width:0.133333" />
      <path
         id="path167"
         d="m 2811.4399,4772.6134 h 784.2 v -468.2666 z"
         style="fill:#61b9b9;fill-opacity:1;fill-rule:nonzero;stroke:none;stroke-width:0.133333" />
      <path
         id="path168"
         d="m 2797.8799,4304.3468 v 468.2666 h 13.56 l 784.2,-468.2666 h -797.76"
         style="fill:#76d1d7;fill-opacity:1;fill-rule:nonzero;stroke:none;stroke-width:0.133333" />
      <path
         id="path169"
         d="m 2802.8533,4767.6401 h 787.8133 v -458.32 h -787.8133 z m 797.7466,9.96 h -807.68 v -478.2267 h 807.68 v 478.2267"
         style="fill:#8c8b8b;fill-opacity:1;fill-rule:nonzero;stroke:none;stroke-width:0.133333" />
    </g>
  </g>
</svg>
