<?xml version="1.0" encoding="UTF-8" standalone="no"?>
<!-- Created with Inkscape (http://www.inkscape.org/) -->

<svg
   version="1.1"
   id="svg1"
   width="1165.1066"
   height="1165.0933"
   viewBox="0 0 1165.1066 1165.0933"
   xmlns="http://www.w3.org/2000/svg"
   xmlns:svg="http://www.w3.org/2000/svg">
  <defs
     id="defs1" />
  <g
     id="g1"
     transform="translate(1389.0552,-3799.5678)">
    <g
       id="g451"
       transform="translate(-4007.4018,1142.461)">
      <path
         id="path7"
         d="M 2618.3466,2657.1068 H 3783.4532 V 3822.2001 H 2618.3466 V 2657.1068"
         style="fill:#62cace;fill-opacity:1;fill-rule:nonzero;stroke:none;stroke-width:0.133333" />
      <path
         id="path131"
         d="m 3146.5466,3451.7868 c 0,45.1066 -36.52,81.6533 -81.64,81.6533 h -272.8933 c -45.12,0 -81.6534,-36.5467 -81.6534,-81.6533 v -586.2933 c 0,-45.0667 36.5334,-81.6134 81.6534,-81.6134 h 272.8933 c 45.12,0 81.64,36.5467 81.64,81.6134 v 586.2933"
         style="fill:#ffffff;fill-opacity:1;fill-rule:nonzero;stroke:none;stroke-width:0.133333" />
      <path
         id="path132"
         d="m 3073.8266,3562.5068 h -290.7333 v -35.5467 h 290.7333 v 35.5467"
         style="fill:#cdd0d3;fill-opacity:1;fill-rule:nonzero;stroke:none;stroke-width:0.133333" />
      <path
         id="path133"
         d="m 3069.6399,3550.1068 -110.96,-0.32 v -0.3734 l -171.4133,0.4667 -4.1733,12.6267 15.2666,43.68 h 99.9334 v 0.24 h 160.2533 l 15.28,-43.7067 -4.1867,-12.6133"
         style="fill:#7a8492;fill-opacity:1;fill-rule:nonzero;stroke:none;stroke-width:0.133333" />
      <path
         id="path134"
         d="m 3091.3733,3323.8134 c 0,89.9734 -72.9334,162.92 -162.92,162.92 -89.96,0 -162.9067,-72.9466 -162.9067,-162.92 0,-89.96 72.9467,-162.9333 162.9067,-162.9333 89.9866,0 162.92,72.9733 162.92,162.9333"
         style="fill:#7a8492;fill-opacity:1;fill-rule:nonzero;stroke:none;stroke-width:0.133333" />
      <path
         id="path135"
         d="m 3069.3866,3323.8134 c 0,77.8534 -63.08,140.96 -140.9333,140.96 -77.84,0 -140.92,-63.1066 -140.92,-140.96 0,-77.8266 63.08,-140.9466 140.92,-140.9466 77.8533,0 140.9333,63.12 140.9333,140.9466"
         style="fill:#cdd0d3;fill-opacity:1;fill-rule:nonzero;stroke:none;stroke-width:0.133333" />
      <path
         id="path136"
         d="m 2969.7733,3323.8134 c 0,22.8267 -18.52,41.32 -41.32,41.32 -22.7867,0 -41.3067,-18.4933 -41.3067,-41.32 0,-22.8133 18.52,-41.3066 41.3067,-41.3066 22.8,0 41.32,18.4933 41.32,41.3066"
         style="fill:#373e4b;fill-opacity:1;fill-rule:nonzero;stroke:none;stroke-width:0.133333" />
      <path
         id="path137"
         d="m 3051.1999,2973.2268 c 0,67.8133 -54.9733,122.7867 -122.7466,122.7867 -67.7734,0 -122.7467,-54.9734 -122.7467,-122.7867 0,-67.7733 54.9733,-122.76 122.7467,-122.76 67.7733,0 122.7466,54.9867 122.7466,122.76"
         style="fill:#7a8492;fill-opacity:1;fill-rule:nonzero;stroke:none;stroke-width:0.133333" />
      <path
         id="path138"
         d="m 3034.6399,2973.2268 c 0,58.68 -47.5466,106.2267 -106.1866,106.2267 -58.64,0 -106.1867,-47.5467 -106.1867,-106.2267 0,-58.64 47.5467,-106.1867 106.1867,-106.1867 58.64,0 106.1866,47.5467 106.1866,106.1867"
         style="fill:#cdd0d3;fill-opacity:1;fill-rule:nonzero;stroke:none;stroke-width:0.133333" />
      <path
         id="path139"
         d="m 2959.6133,2973.2268 c 0,17.2 -14,31.16 -31.16,31.16 -17.2,0 -31.1467,-13.96 -31.1467,-31.16 0,-17.1867 13.9467,-31.12 31.1467,-31.12 17.16,0 31.16,13.9333 31.16,31.12"
         style="fill:#373e4b;fill-opacity:1;fill-rule:nonzero;stroke:none;stroke-width:0.133333" />
      <path
         id="path140"
         d="m 3107.7999,3643.2801 c 0,25.8933 -21,46.84 -46.8533,46.84 h -264.9733 c -25.8534,0 -46.8134,-20.9467 -46.8134,-46.84 v 0 c 0,-25.8933 20.96,-46.84 46.8134,-46.84 h 264.9733 c 25.8533,0 46.8533,20.9467 46.8533,46.84 v 0"
         style="fill:#cdd0d3;fill-opacity:1;fill-rule:nonzero;stroke:none;stroke-width:0.133333" />
      <path
         id="path141"
         d="m 3677.2799,3451.7868 c 0,45.1066 -36.52,81.6533 -81.64,81.6533 h -272.8933 c -45.1067,0 -81.64,-36.5467 -81.64,-81.6533 v -586.2933 c 0,-45.0667 36.5333,-81.6134 81.64,-81.6134 h 272.8933 c 45.12,0 81.64,36.5467 81.64,81.6134 v 586.2933"
         style="fill:#ffffff;fill-opacity:1;fill-rule:nonzero;stroke:none;stroke-width:0.133333" />
      <path
         id="path142"
         d="m 3604.5599,3562.5068 h -290.7333 v -35.5467 h 290.7333 v 35.5467"
         style="fill:#cdd0d3;fill-opacity:1;fill-rule:nonzero;stroke:none;stroke-width:0.133333" />
      <path
         id="path143"
         d="m 3600.3866,3550.1068 -110.9734,-0.32 v -0.3734 l -171.4133,0.4667 -4.1733,12.6267 15.2667,43.68 h 99.9199 v 0.24 h 160.2667 l 15.28,-43.7067 -4.1733,-12.6133"
         style="fill:#7a8492;fill-opacity:1;fill-rule:nonzero;stroke:none;stroke-width:0.133333" />
      <path
         id="path144"
         d="m 3622.1066,3323.8134 c 0,89.9734 -72.9334,162.92 -162.92,162.92 -89.96,0 -162.9067,-72.9466 -162.9067,-162.92 0,-89.96 72.9467,-162.9333 162.9067,-162.9333 89.9866,0 162.92,72.9733 162.92,162.9333"
         style="fill:#7a8492;fill-opacity:1;fill-rule:nonzero;stroke:none;stroke-width:0.133333" />
      <path
         id="path145"
         d="m 3600.1332,3323.8134 c 0,77.8534 -63.1066,140.96 -140.9466,140.96 -77.84,0 -140.9333,-63.1066 -140.9333,-140.96 0,-77.8266 63.0933,-140.9466 140.9333,-140.9466 77.84,0 140.9466,63.12 140.9466,140.9466"
         style="fill:#cdd0d3;fill-opacity:1;fill-rule:nonzero;stroke:none;stroke-width:0.133333" />
      <path
         id="path146"
         d="m 3500.5066,3323.8134 c 0,22.8267 -18.5334,41.32 -41.32,41.32 -22.7867,0 -41.3067,-18.4933 -41.3067,-41.32 0,-22.8133 18.52,-41.3066 41.3067,-41.3066 22.7866,0 41.32,18.4933 41.32,41.3066"
         style="fill:#373e4b;fill-opacity:1;fill-rule:nonzero;stroke:none;stroke-width:0.133333" />
      <path
         id="path147"
         d="m 3581.9466,2973.2268 c 0,67.8133 -54.9867,122.7867 -122.76,122.7867 -67.7734,0 -122.7467,-54.9734 -122.7467,-122.7867 0,-67.7733 54.9733,-122.76 122.7467,-122.76 67.7733,0 122.76,54.9867 122.76,122.76"
         style="fill:#7a8492;fill-opacity:1;fill-rule:nonzero;stroke:none;stroke-width:0.133333" />
      <path
         id="path148"
         d="m 3565.3732,2973.2268 c 0,58.68 -47.5466,106.2267 -106.1866,106.2267 -58.64,0 -106.1867,-47.5467 -106.1867,-106.2267 0,-58.64 47.5467,-106.1867 106.1867,-106.1867 58.64,0 106.1866,47.5467 106.1866,106.1867"
         style="fill:#cdd0d3;fill-opacity:1;fill-rule:nonzero;stroke:none;stroke-width:0.133333" />
      <path
         id="path149"
         d="m 3490.3466,2973.2268 c 0,17.2 -13.9867,31.16 -31.16,31.16 -17.1867,0 -31.1467,-13.96 -31.1467,-31.16 0,-17.1867 13.96,-31.12 31.1467,-31.12 17.1733,0 31.16,13.9333 31.16,31.12"
         style="fill:#373e4b;fill-opacity:1;fill-rule:nonzero;stroke:none;stroke-width:0.133333" />
      <path
         id="path150"
         d="m 3638.5332,3643.2801 c 0,25.8933 -21,46.84 -46.8533,46.84 h -264.9733 c -25.8533,0 -46.8133,-20.9467 -46.8133,-46.84 v 0 c 0,-25.8933 20.96,-46.84 46.8133,-46.84 h 264.9733 c 25.8533,0 46.8533,20.9467 46.8533,46.84 v 0"
         style="fill:#cdd0d3;fill-opacity:1;fill-rule:nonzero;stroke:none;stroke-width:0.133333" />
    </g>
  </g>
</svg>
